<?xml version="1.0" encoding="UTF-8" standalone="no"?>
<svg
   id="Layer_1"
   viewBox="0 0 245 240"
   version="1.1"
   sodipodi:docname="discord_white.svg"
   inkscape:version="1.1.1 (3bf5ae0d25, 2021-09-20, custom)"
   xmlns:inkscape="http://www.inkscape.org/namespaces/inkscape"
   xmlns:sodipodi="http://sodipodi.sourceforge.net/DTD/sodipodi-0.dtd"
   xmlns="http://www.w3.org/2000/svg"
   xmlns:svg="http://www.w3.org/2000/svg">
  <defs
     id="defs11">
    <rect
       x="65"
       y="45"
       width="125"
       height="125"
       id="rect9079" />
  </defs>
  <sodipodi:namedview
     id="namedview9"
     pagecolor="#505050"
     bordercolor="#eeeeee"
     borderopacity="1"
     inkscape:pageshadow="0"
     inkscape:pageopacity="0"
     inkscape:pagecheckerboard="0"
     showgrid="true"
     inkscape:zoom="3.7417734"
     inkscape:cx="122.26823"
     inkscape:cy="118.79394"
     inkscape:window-width="1920"
     inkscape:window-height="1022"
     inkscape:window-x="1920"
     inkscape:window-y="32"
     inkscape:window-maximized="1"
     inkscape:current-layer="Layer_1">
    <inkscape:grid
       type="xygrid"
       id="grid1075" />
  </sodipodi:namedview>
  <style
     id="style2">.st0{fill:#FFFFFF;}</style>
  <path
     id="path1364"
     style="fill:#ffffff;stroke:none;stroke-width:1px;stroke-linecap:butt;stroke-linejoin:miter;stroke-opacity:1"
     d="M 55.5 20 C 44.2 20 35 29.199609 35 40.599609 L 35 175.80078 C 35 187.20078 44.2 196.40039 55.5 196.40039 L 168.90039 196.40039 L 163.59961 177.90039 L 176.40039 189.80078 L 188.5 201 L 210 220 L 210 40.599609 C 210 29.199609 200.8 20 189.5 20 L 55.5 20 z M 110.75586 37.820312 L 125.94336 37.820312 L 116.19336 76.726562 L 143.56836 76.726562 L 153.41211 37.820312 L 168.41211 37.820312 L 158.75586 76.726562 L 188.00586 76.726562 L 188.00586 91.164062 L 155.09961 91.164062 L 147.41211 122.47656 L 177.22461 122.47656 L 177.22461 136.82031 L 143.75586 136.82031 L 134.00586 175.63281 L 119.00586 175.63281 L 128.66211 136.82031 L 101.19336 136.82031 L 91.537109 175.63281 L 76.443359 175.63281 L 86.193359 136.82031 L 56.662109 136.82031 L 56.662109 122.47656 L 89.662109 122.47656 L 97.537109 91.164062 L 67.349609 91.164062 L 67.349609 76.726562 L 101.19336 76.726562 L 110.75586 37.820312 z M 112.72461 91.164062 L 104.84961 122.47656 L 132.31836 122.47656 L 140.00586 91.164062 L 112.72461 91.164062 z " />
  <text
     xml:space="preserve"
     id="text9077"
     style="font-style:normal;font-weight:normal;font-size:192px;line-height:1.25;font-family:sans-serif;letter-spacing:0px;word-spacing:0px;white-space:pre;shape-inside:url(#rect9079);fill:#000000;fill-opacity:1;stroke:none"><tspan
       x="65"
       y="339.875"
       id="tspan51300"><tspan
         style="font-size:96px;font-family:Inconsolata;-inkscape-font-specification:Inconsolata"
         id="tspan51298">#</tspan></tspan></text>
</svg>
